<?xml version="1.0" encoding="windows-1252"?>
<!-- Generator: Adobe Illustrator 16.0.0, SVG Export Plug-In . SVG Version: 6.00 Build 0)  -->
<!DOCTYPE svg PUBLIC "-//W3C//DTD SVG 1.1//EN" "http://www.w3.org/Graphics/SVG/1.1/DTD/svg11.dtd">
<svg version="1.1" id="Capa_1" xmlns="http://www.w3.org/2000/svg" xmlns:xlink="http://www.w3.org/1999/xlink" x="0px" y="0px" width="35px" height="35px" viewBox="0 0 35 35" style="enable-background:new 0 0 35 35;" xml:space="preserve">
<g>
	<g>
		<path d="M17.51,20.215c5.572,0,10.105-4.533,10.105-10.105C27.615,4.531,23.082,0,17.51,0C11.935,0,7.4,4.531,7.4,10.109    C7.399,15.682,11.935,20.215,17.51,20.215z M21.909,3.637c0.332,2.309,2.062,5.582,3.827,7.201    c-0.374,4.217-3.917,7.537-8.227,7.537c-3.297,0-6.141-1.945-7.468-4.741c1.444,1.788,3.826,3.011,6.558,3.167    c0.146,0.018,0.295,0.031,0.452,0.031c0.046,0,0.09-0.004,0.135-0.006c0.003,0,0.005,0,0.008,0    c0.922-0.037,1.649-0.406,1.649-0.863c0-0.48-0.802-0.871-1.792-0.871c-0.99,0-1.792,0.391-1.792,0.871    c0,0.043,0.014,0.082,0.025,0.125c-3.344-0.689-5.859-3.137-6.038-6.094c0.015-1.06,0.228-2.075,0.608-3.002    C12.13,6.787,21.483,4.912,21.909,3.637z"/>
		<path d="M25.121,18.482c-2.007,1.822-4.652,2.943-7.56,2.963v-0.006c-0.023,0-0.04,0.006-0.062,0.006    c-0.018,0-0.037-0.006-0.057-0.006v0.006c-2.913-0.02-5.56-1.141-7.56-2.963c-3.666,0.684-6.441,3.889-6.441,7.752V35h14.001    h0.119h13.997v-8.766C31.56,22.371,28.782,19.166,25.121,18.482z"/>
	</g>
</g>
<g>
</g>
<g>
</g>
<g>
</g>
<g>
</g>
<g>
</g>
<g>
</g>
<g>
</g>
<g>
</g>
<g>
</g>
<g>
</g>
<g>
</g>
<g>
</g>
<g>
</g>
<g>
</g>
<g>
</g>
</svg>